<svg xmlns="http://www.w3.org/2000/svg" viewBox="0 0 512 512" width="512" height="512">
  <!-- V7 Tilak: minimal 3-petal lotus with a tilak U mark, marigold on teal, very legible at small sizes -->
  <rect width="512" height="512" rx="112" fill="#1E5A70"/>
  <g transform="translate(256 356)" fill="#F2B134">
    <path d="M0 0 C-70 -20 -130 -70 -150 -150 C-90 -140 -30 -90 0 0Z" opacity="0.8"/>
    <path d="M0 0 C70 -20 130 -70 150 -150 C90 -140 30 -90 0 0Z" opacity="0.8"/>
    <path d="M0 0 C-30 -80 -30 -180 0 -270 C30 -180 30 -80 0 0Z"/>
  </g>
  <path d="M232 250 V300 Q256 322 280 300 V250" fill="none" stroke="#1E5A70" stroke-width="12" stroke-linecap="round" stroke-linejoin="round"/>
  <line x1="256" y1="262" x2="256" y2="304" stroke="#E4789A" stroke-width="12" stroke-linecap="round"/>
  <path d="M116 392 Q186 372 256 392 T396 392" fill="none" stroke="#E4789A" stroke-width="8" stroke-linecap="round"/>
</svg>
